<?xml version="1.0"?>
<svg xmlns="http://www.w3.org/2000/svg" viewBox="0 0 128 128" width="512" height="512"><g id="Layer_2" data-name="Layer 2"><path d="M111.5,21.255H92.746V1.75A1.751,1.751,0,0,0,91,0H37a1.751,1.751,0,0,0-1.75,1.75V21.255H16.5a1.751,1.751,0,0,0-1.75,1.75v14a1.751,1.751,0,0,0,1.75,1.75h6.25v87.5A1.751,1.751,0,0,0,24.5,128h79a1.751,1.751,0,0,0,1.75-1.75V38.755h6.25a1.751,1.751,0,0,0,1.75-1.75v-14A1.751,1.751,0,0,0,111.5,21.255ZM38.754,3.5H89.246V21.255h-4.5V9.75A1.751,1.751,0,0,0,83,8H45a1.751,1.751,0,0,0-1.75,1.75V21.255h-4.5Zm8,17.755V11.5H81.246v9.755Zm55,103.245H26.25V38.755h75.5Zm8-89.245H18.25v-10.5h91.5Z"/><path d="M58.5,116.255h11a1.751,1.751,0,0,0,1.75-1.75V48.75A1.751,1.751,0,0,0,69.5,47h-11a1.751,1.751,0,0,0-1.75,1.75v65.755A1.751,1.751,0,0,0,58.5,116.255ZM60.25,50.5h7.5v62.255h-7.5Z"/><path d="M80,116.255H91a1.751,1.751,0,0,0,1.75-1.75V48.75A1.751,1.751,0,0,0,91,47H80a1.751,1.751,0,0,0-1.75,1.75v65.755A1.751,1.751,0,0,0,80,116.255ZM81.746,50.5h7.5v62.255h-7.5Z"/><path d="M37,116.255H48a1.751,1.751,0,0,0,1.75-1.75V48.75A1.751,1.751,0,0,0,48,47H37a1.751,1.751,0,0,0-1.75,1.75v65.755A1.751,1.751,0,0,0,37,116.255ZM38.754,50.5h7.5v62.255h-7.5Z"/></g></svg>
